<svg height="512" viewBox="0 0 60 61" width="512" xmlns="http://www.w3.org/2000/svg"><g id="Page-1" fill="none" fill-rule="evenodd"><g id="040---Trash" fill-rule="nonzero"><g id="Color" transform="translate(1 5)"><path id="Shape" d="m58 50c0 2.7614237-2.2385763 5-5 5h-48c-2.4812997-.0364047-4.56043596-1.8871959-4.88397291-4.3475815-.32353695-2.4603857 1.20643866-4.7857696 3.59397291-5.4624185-1.68470961-1.7267802-2.17135865-4.2946415-1.23527995-6.5181012.93607869-2.2234596 3.1128097-3.6700354 5.52527995-3.6718988.51323127-.000069 1.02425531.067171 1.52.2.46072566.3007453 1.0249979.3984078 1.56.27-.7433118.1153776-1.35902452.6380664-1.5935445 1.3527865-.23451999.7147201-.04818091 1.5005849.48226973 2.0339202.53045067.5333353 1.31529327.7239337 2.03127477.4932933-.5161532.1254616-.961195.4510988-1.236965.9050874-.2757699.4539886-.3596125.9990319-.233035 1.5149126l1.47 5.71c2.6012225-.7328325 5.3298146-.896548 8-.48 0 0 1.68-3.36 7.35-3.92l-1.24-5.08c-.1254616-.5161532-.4510988-.961195-.9050874-1.236965-.4539886-.2757699-.9990319-.3596125-1.5149126-.233035.9766815-.2446436 1.6192259-1.1771958 1.4999643-2.1769628-.1192615-.9997669-.9631412-1.7550046-1.9699643-1.7630372-.1618383.0005056-.3230169.020653-.48.06.5161532-.1254616.961195-.4510988 1.236965-.9050874.2757699-.4539886.3596125-.9990319.233035-1.5149126l-1-3.94c.7928529-2.9299785 3.6489909-4.8063191 6.6529166-4.3706352 3.0039256.4356839 5.2093071 3.0461379 5.1370834 6.0806352.0028965.410272-.0407152.8195506-.13 1.22.3589323-.1455942.7426629-.2203028 1.13-.22 1.4412934.0043984 2.6757683 1.0331275 2.94 2.45.6476358-.2924264 1.3494178-.4457283 2.06-.45 2.7614237 0 5 2.2385763 5 5-.0100971.1975481-.0301223.3944635-.06.59 2.4011298-2.121624 6.0455836-1.9822111 8.2776148.3166473 2.2320311 2.2988584 2.2639007 5.9458385.0723852 8.2833527 2.1805112.5822644 3.7006401 2.5531054 3.71 4.81z" fill="#60a917"/><g fill="#549414"><path id="Shape" d="m32 28c.0028965.410272-.0407152.8195506-.13 1.22.3589323-.1455942.7426629-.2203028 1.13-.22 1.4412934.0043984 2.6757683 1.0331275 2.94 2.45.6476358-.2924264 1.3494178-.4457283 2.06-.45.281592.0058766.5623611.0326166.84.08-.3976458-1.2342525-1.5432901-2.0733159-2.84-2.08-.3873371-.0003028-.7710677.0744058-1.13.22.0892848-.4004494.1328965-.809728.13-1.22 0-3.3137085-2.6862915-6-6-6-.4996851.0054917-.99678.0726667-1.48.2 2.6377603.6907653 4.4780574 3.0732927 4.48 5.8z"/><path id="Shape" d="m43 36c-.0100971.1975481-.0301223.3944635-.06.59.8382735-.7713926 1.8788282-1.2882014 3-1.49-.4360241-2.3829189-2.5175406-4.1104934-4.94-4.1-.5168215.0009597-1.0300963.0853799-1.52.25 2.0840053.6457732 3.508672 2.5682638 3.52 4.75z"/><path id="Shape" d="m6.52 35.2c.46072566.3007453 1.02499785.3984078 1.56.27-.7433118.1153776-1.35902452.6380664-1.5935445 1.3527865-.23451999.7147201-.04818091 1.5005849.48226973 2.0339202s1.31529331.7239337 2.03127477.4932933c-.51615317.1254616-.96119504.4510988-1.23696497.9050874-.27576994.4539886-.35961253.9990319-.23303503 1.5149126l1.47 5.71c.9316052-.2862255 1.8898443-.4772033 2.86-.57l-1.25-5.14c-.2690297-1.0500586.3474209-2.1233034 1.39-2.42-.7110493.2199363-1.4854132.0268347-2.00993874-.5012147-.52452556-.5280493-.71243819-1.3036887-.48774602-2.0132495.22469218-.7095608.82481726-1.2356572 1.55768476-1.3655358-.5350021.1284078-1.09927434.0307453-1.56-.27-.48927643-.1311069-.99346504-.198332-1.5-.2-.50665881-.0001775-1.01108756.0670797-1.5.2z"/><path id="Shape" d="m17 47c.0362278-.0688586.0762908-.1356302.12-.2-.62 0-1.2 0-1.73.05.51.03 1.04.08 1.61.15z"/><path id="Shape" d="m54.29 45.19c1.6847096-1.7267802 2.1713587-4.2946415 1.23528-6.5181012-.9360787-2.2234596-3.1128098-3.6700354-5.52528-3.6718988-.5066588-.0001775-1.0110876.0670797-1.5.2 2.0716327.5361461 3.7009232 2.135036 4.2759891 4.196204.5750659 2.0611681.0088559 4.2726026-1.4859891 5.803796 2.370682.6893767 3.8833111 3.0058951 3.5611052 5.4536608s-2.3827804 4.2939338-4.8511052 4.3463392h3c2.4812997-.0364047 4.560436-1.8871959 4.8839729-4.3475815.323537-2.4603857-1.2064386-4.7857696-3.5939729-5.4624185z"/></g><path id="Shape" d="m22.74 32.63-11.65 2.84c-.5350021.1284078-1.09927434.0307453-1.56-.27-.42921356-.2756855-.73686101-.704961-.86-1.2l-1.18-4.86c-.19002005-.7731283-.06493621-1.5900824.34770322-2.2709374.41263943-.6808551 1.07899046-1.1697685 1.85229678-1.3590626l1.94-.51 5.83-1.42 1.95-.47c1.6091374-.3681749 3.2134001.6328135 3.59 2.24l.22.91 1 3.94c.1293008.5186888.0455773 1.0675535-.2324859 1.5241032s-.7273218.782784-1.2475141.9058968z" fill="#02a9f4"/><path id="Shape" d="m24.21 30.21-1-3.94-.21-.92c-.3943518-1.6055148-2.0132748-2.5893906-3.62-2.2l-1 .23c.8015903.3963747 1.3845677 1.1296797 1.59 2l.22.91 1 3.94c.1265775.5158807.0427349 1.060924-.233035 1.5149126-.27577.4539886-.7208118.7796258-1.236965.9050874l-10.3 2.51.08.06c.46072566.3007453 1.0249979.3984078 1.56.27l11.65-2.84c.526087-.1184579.9820458-.4443405 1.2644597-.9037338.2824139-.4593932.3673487-1.0133644.2355403-1.5362662z" fill="#0377bc"/><path id="Shape" d="m27.35 43.08c-5.67.56-7.35 3.92-7.35 3.92-2.6701854-.416548-5.3987775-.2528325-8 .48l-1.39-5.71c-.2690297-1.0500586.3474209-2.1233034 1.39-2.42l11.66-2.84c.5229017-.135142 1.078232-.0530606 1.5396791.2275746s.789781.7359658.9103209 1.2624254z" fill="#02a9f4"/><path id="Shape" d="m26.11 38c-.1254616-.5161532-.4510988-.961195-.9050874-1.236965-.4539886-.2757699-.9990319-.3596125-1.5149126-.233035l-1.36.33c.3871372.2753068.6636392.6794252.78 1.14l1.24 5.1c-4.85.48-6.78 3-7.23 3.72.9626135.0060153 1.9241287.06611 2.88.18 0 0 1.68-3.36 7.35-3.92z" fill="#0377bc"/><path id="Shape" d="m23.69 36.51-11.69 2.84c-.7110493.2199363-1.4854132.0268347-2.00993874-.5012147-.52452556-.5280493-.71243819-1.3036887-.48774602-2.0132495.22469218-.7095608.82481726-1.2356572 1.55768476-1.3655358l11.65-2.84c.1569831-.039347.3181617-.0594944.48-.06 1.0068231.0080326 1.8507028.7632703 1.9699643 1.7630372.1192616.999767-.5232828 1.9323192-1.4999643 2.1769628z" fill="#02a9f4"/><path id="Shape" d="m25.16 34.1c-.2166768-.8962161-1.0179649-1.5281598-1.94-1.53-.1618383.0005056-.3230169.020653-.48.06l-1.34.37c.379652.278668.648788.682372.76 1.14.2572912 1.0710746-.3999305 2.1485604-1.47 2.41l-10.31 2.45c.4747177.3472726 1.0782327.4679755 1.65.33l11.66-2.84c1.0603868-.261647 1.7147804-1.3255932 1.47-2.39z" fill="#0377bc"/><path id="Shape" d="m17.46 23.62-5.83 1.38-1.18-4.86c-.0891457-.514992.2333239-1.0117695.74-1.14l3.88-1c.5356491-.1321055 1.0770912.1945496 1.21.73z" fill="#f44335"/><path id="Shape" d="m16.28 18.76c-.0571305-.2626905-.2176224-.4913149-.445273-.6343021-.2276507-.1429872-.5032848-.1882931-.764727-.1256979l-1.92.46c.0566489.0829595.1004742.1739812.13.27l1.18 4.86-3 .73.17.69 5.83-1.42z" fill="#c81e1e"/><path id="Shape" d="m57.74 21.33c-4.8447892-3.6634307-10.4430135-6.2046625-16.39-7.44 3-4.14 9.18-5.72 11.91-4.48s5.63 6.95 4.48 11.92z" fill="#f5f5f5"/><path id="Shape" d="m53.26 9.41c-1.2394792-.44960945-2.5800963-.54314088-3.87-.27.2988736.05842072.5905645.1489455.87.27 2.39 1.08 4.9 5.58 4.73 10 1.72 1.09 2.75 1.91 2.75 1.91 1.15-4.96-1.74-10.67-4.48-11.91z" fill="#cfd8dc"/><circle id="Oval" cx="36" cy="45" fill="#007900" r="2"/><path id="Shape" d="m10 2c0 1.1045695-.8954305 2-2 2h-2c-1.1045695 0-2-.8954305-2-2s.8954305-2 2-2h2c1.1045695 0 2 .8954305 2 2z" fill="#607d8b"/><path id="Shape" d="m29 13c0 1.1045695-.8954305 2-2 2h-2c-1.1045695 0-2-.8954305-2-2s.8954305-2 2-2h2c1.1045695 0 2 .8954305 2 2z" fill="#607d8b"/><path id="Shape" d="m47 2c0 1.1045695-.8954305 2-2 2h-2c-1.1045695 0-2-.8954305-2-2s.8954305-2 2-2h2c1.1045695 0 2 .8954305 2 2z" fill="#607d8b"/></g><g id="Outline" fill="#000"><path id="Shape" d="m56.9 49.77c1.6512678-2.6474195 1.3509656-6.0680979-.7363239-8.3873085s-5.4575458-2.9769304-8.2636761-1.6126915c-.3235231-1.4465993-1.1668765-2.7240839-2.37-3.59l1-2.14c1.0673887.6400783 2.0543973 1.4055135 2.94 2.28.1878088.1970153.4478124.3089612.72.31.2574695-.0010253.5046225-.1013193.69-.28.3877236-.3900375.3877236-1.0199625 0-1.41-1.0581545-1.0649478-2.2517128-1.9861731-3.55-2.74l.83-1.83c1.7125242.9007321 3.3334739 1.9657363 4.84 3.18.1799121.1490812.4063478.2304565.64.23.4233743-.0024382.799331-.2712296.9385947-.6710513.1392637-.3998216.0116498-.8440141-.3185947-1.1089487-1.6305908-1.3385012-3.3929769-2.507841-5.26-3.49l.83-1.82c2.0228876 1.0461563 3.950253 2.2674903 5.76 3.65.1759393.1411606.3944358.2186916.62.22.304272-.0014028.5913526-.1412626.78-.38.1666477-.2078446.2434734-.473593.213436-.7382977s-.1644547-.5064822-.373436-.6717023c-1.9365755-1.4888918-4.0051798-2.7976689-6.18-3.91l.8-1.86c2.349494 1.1381899 4.5832515 2.5012173 6.67 4.07.1759393.1411606.3944358.2186916.62.22.1125935-.0012782.2241625-.0215635.33-.06.3224924-.114659.5639412-.3862889.64-.72 1.22-5.24-1.75-11.56-5-13s-10 .44-13.14 4.81c-.2138761.2892794-.2558815.6711473-.11 1 .128577.3186968.4117926.5490455.75.61 2.5556688.5400506 5.0537404 1.323628 7.46 2.34l-.87 1.73c-2.2646253-.9064871-4.607829-1.6027534-7-2.08-.262766-.0494742-.534401.0083434-.7542412.1605404-.2198402.1521971-.369573.3860957-.4157588.6494596-.04653.2612525.0126875.5302868.1646117.7478573.1519243.2175706.3840963.3658348.6453883.4121427 2.2405425.461693 4.4357871 1.1209356 6.56 1.97l-.82 1.82c-1.9966984-.7711762-4.0676761-1.3341604-6.18-1.68-.3572656-.0518035-.7150295.090927-.9385254.3744263-.223496.2834993-.2787696.6646972-.145 1s.4362598.5737702.7935254.6255737c1.9117917.3227282 3.7874017.8318223 5.6 1.52l-.83 1.83c-1.4263454-.4789098-2.9086402-.7713353-4.41-.87-.5522847 0-1 .4477153-1 1s.4477153 1 1 1c1.248005.0838515 2.4807694.3223427 3.67.71l-.95 2.09c-.5792301-.1826513-1.1826614-.2770428-1.79-.28-.485604.0001036-.9693122.0605671-1.44.18-.6833267-1.3373555-2.0581829-2.1792619-3.56-2.18-.0099828-3.0056687-1.9376365-5.6694664-4.7895326-6.6185883s-5.9913673.0283174-7.8004674 2.4285883c-.9378034-1.3709855-2.62532-2.0197241-4.24-1.63l-1 .23-.95-3.88c-.2614396-1.0700695-1.3389254-1.7272912-2.41-1.47l-3.81.94c-.5161532.1254616-.961195.4510988-1.236965.9050874-.2757699.4539886-.3596125.9990319-.233035 1.5149126l.95 3.89-1 .23c-1.04338301.237566-1.94807462.8832912-2.5118372 1.7928282-.56376257.9095369-.73958479 2.0070407-.4881628 3.0471718l1.16 4.62c-2.49305149.1256584-4.73054328 1.5694078-5.87236911 3.7891667-1.14182584 2.2197589-1.01518646 4.879598.33236911 6.9808333-2.37177432 1.3333986-3.54938515 4.0958723-2.8690678 6.7303425.68031734 2.6344703 3.04823514 4.4813578 5.7690678 4.4996575h48c2.7208327-.0182997 5.0887505-1.8651872 5.7690678-4.4996575.6803173-2.6344702-.4972935-5.3969439-2.8690678-6.7303425zm-3-34.45c2 .92 4.36 5.14 4.13 9.22-2.0869002-1.4449274-4.2990795-2.6999459-6.61-3.75-2.3162095-1.0428151-4.7185573-1.8826331-7.18-2.51 2.87-2.85 7.58-3.88 9.61-2.96zm-40.22 35.93-1.15-4.72c-.060194-.2560527-.0170806-.5255113.12-.75.1363995-.2242396.355491-.3858645.61-.45l11.66-2.84c.535421-.1252036 1.0714792.2053656 1.2.74l1 4c-2.6068814.3162877-4.984738 1.6453012-6.62 3.7-2.2753947-.271005-4.5799779-.162872-6.82.32zm11.51-11.92c.1327367.5325786-.1886032 1.0726083-.72 1.21l-11.68 2.84c-.5289938.1196269-1.0569227-.2042287-1.19-.73-.0659408-.257877-.0263516-.5314022.11-.76.1387378-.2263545.3617921-.3882488.62-.45l11.67-2.84c.5289938-.1196269 1.0569227.2042287 1.19.73zm-12.77-14.33 3.89-1 1 3.89-3.89.94zm-2.73 7.39c.27747552-.4527091.7235842-.7764976 1.24-.9l1.94-.49 2.92-.71 4.85-1.18c.1569831-.039347.3181617-.0594944.48-.06.9220351.0018402 1.7233232.6337839 1.94 1.53l1.18 4.86c.0631788.2547482.0236705.524123-.11.75-.1367616.2301423-.3600913.3958386-.62.46l-11.66 2.85c-.2586349.0631387-.5317704.0205381-.7588934-.1183635-.227123-.1389017-.389482-.3626366-.4511066-.6216365l-1.18-4.86c-.12612136-.51394-.04341631-1.0569167.23-1.51zm44.31 26.61h-48c-1.96921257-.0563312-3.60421789-1.538075-3.85347626-3.4922607-.24925838-1.9541856.96145334-3.7989036 2.85347626-4.3477393.34309171-.0951737.60970215-.3655929.7-.71.1081156-.3539138.01194377-.7386011-.25-1-1.37206901-1.4389244-1.761211-3.5540575-.99111757-5.3870967.77009342-1.8330393 2.55307008-3.0356255 4.54111757-3.0629033.29537168.0047056.58979081.0348167.88.09-.68029347 1.3336709-.24971431 2.9655659 1 3.79-.3539617.646999-.4572004 1.4017099-.29 2.12l1.18 4.83c-.9069205.3307251-1.7469609.8218778-2.48 1.45-.38114288.3888435-.38114288 1.0111565 0 1.4.18370176.1982262.43981532.3136577.71.32.2595319.0042593.5105512-.0925625.7-.27 0 0 2.86-2.65 10.18-1.73.410857.0471028.8083236-.1635546 1-.53.12-.16 1.9-3.47 8.12-3.47.5522847 0 1-.4477153 1-1s-.4477153-1-1-1c-.3 0-.59 0-.88 0l-1-4.29c-.1947115-.7087056-.6478078-1.3187801-1.27-1.71.7118928-1.3614383.2802134-3.0406712-1-3.89.3685148-.6377464.4895338-1.3887766.34-2.11l-.89-3.66c.8249871-2.2738486 3.1593931-3.6310676 5.5436141-3.2230463s4.1344677 2.4642634 4.1563859 4.8830463c-.001031.335777-.0345201.6706679-.1 1-.0909789.367025.0328459.7539775.32 1 .2777263.2340644.6605289.2991408 1 .17.5592495-.2491647 1.2018167-.2284494 1.7438563.0562188.5420396.2846683.9238325.8019264 1.0361437 1.4037812.0561556.3009274.247052.5595564.5180719.7018906.2710198.1423341.5923034.1526917.8719281.0281094.5063735-.2289202 1.0543513-.3514494 1.61-.36.2959846.0030971.5908672.0366065.88.1l-1.94 4.28c-.9636107-.2313321-1.9492389-.3587262-2.94-.38-.5522847 0-1 .4477153-1 1s.4477153 1 1 1c1 0 3.89.31 5.29 1.71.1877666.1893127.4433625.2957983.71.2957983s.5222334-.1064856.71-.2957983c.1893127-.1877666.2957983-.4433625.2957983-.71s-.1064856-.5222334-.2957983-.71c-.5460994-.5324106-1.178359-.9685683-1.87-1.29l1.81-4c.8594249.7601085 1.3510759 1.8526662 1.35 3 .0104577.0830052.0104577.1669948 0 .25v.24c-.0453127.4131645.1696708.8112821.54 1 .371082.1905935.8214929.1308044 1.13-.15 1.9771794-1.9329966 5.1470034-1.8971794 7.08.08s1.8971794 5.1470034-.08 7.08c-.2619438.2613989-.3581156.6460862-.25 1 .0902978.3444071.3569083.6148263.7.71 1.8321692.6137716 2.9636774 2.4495028 2.6886986 4.3620786s-1.8778263 3.3551776-3.8086986 3.4279214z"/><circle id="Oval" cx="29" cy="54" r="1"/><circle id="Oval" cx="17" cy="56" r="1"/><circle id="Oval" cx="30" cy="33" r="1"/><circle id="Oval" cx="33" cy="41" r="1"/><circle id="Oval" cx="45" cy="55" r="1"/><circle id="Oval" cx="49" cy="48" r="1"/><path id="Shape" d="m52.61 18.05c.2252411-.5029195.001177-1.0932775-.5010305-1.3201016-.5022076-.2268242-1.0932684-.0046209-1.3216734.4968696-.228405.5014906-.0080646 1.0932484.4927039 1.323232.2425025.111372.5194599.121199.769246.0272945.2497862-.0939046.4516786-.2837504.560754-.5272945z"/><path id="Shape" d="m37 47c-1.6568542 0-3 1.3431458-3 3s1.3431458 3 3 3 3-1.3431458 3-3-1.3431458-3-3-3zm0 4c-.5522847 0-1-.4477153-1-1s.4477153-1 1-1 1 .4477153 1 1-.4477153 1-1 1z"/><path id="Shape" d="m4 7c0 1.65685425 1.34314575 3 3 3h2c1.4837927-.02406358 2.7270345-1.12936087 2.9246383-2.60013363.1976038-1.47077277-.7098149-2.86501933-2.1346383-3.27986637l1-1.57c.1808578-.43798988.0294803-.94278211-.3625483-1.20897433-.3920285-.26619222-.91706189-.22069134-1.2574517.10897433l-1.17 1.75-1.17-1.75c-.32391225-.40212479-.90072441-.49151293-1.33115472-.20628803-.4304303.2852249-.5729246.8512619-.32884528 1.30628803l1 1.57c-1.28396323.36965844-2.1687092 1.54388351-2.17 2.88zm3-1h2c.55228475 0 1 .44771525 1 1s-.44771525 1-1 1h-2c-.55228475 0-1-.44771525-1-1s.44771525-1 1-1z"/><path id="Shape" d="m23 18c0 1.6568542 1.3431458 3 3 3h2c1.4837927-.0240636 2.7270345-1.1293609 2.9246383-2.6001336.1976038-1.4707728-.7098149-2.8650194-2.1346383-3.2798664l1-1.57c.2380487-.2955284.2883109-.7003343.1297641-1.0451054-.1585468-.3447712-.4985809-.570095-.8778815-.5817287-.3793005-.0116337-.7325045.1924276-.9118826.5268341l-1.13 1.75-1.17-1.75c-.1793781-.3344065-.5325821-.5384678-.9118826-.5268341-.3793006.0116337-.7193347.2369575-.8778815.5817287-.1585468.3447711-.1082846.749577.1297641 1.0451054l1 1.57c-1.2839632.3696584-2.1687092 1.5438835-2.17 2.88zm3-1h2c.5522847 0 1 .4477153 1 1s-.4477153 1-1 1h-2c-.5522847 0-1-.4477153-1-1s.4477153-1 1-1z"/><path id="Shape" d="m41 7c0 1.65685425 1.3431458 3 3 3h2c1.4837927-.02406358 2.7270345-1.12936087 2.9246383-2.60013363.1976038-1.47077277-.7098149-2.86501933-2.1346383-3.27986637l1-1.57c.1808578-.43798988.0294803-.94278211-.3625483-1.20897433-.3920285-.26619222-.9170619-.22069134-1.2574517.10897433l-1.17 1.75-1.17-1.75c-.1793781-.33440654-.5325821-.5384678-.9118826-.52683412-.3793006.01163367-.7193347.2369575-.8778815.58172867s-.1082846.74957701.1297641 1.04510545l1 1.57c-1.2839632.36965844-2.1687092 1.54388351-2.17 2.88zm3-1h2c.5522847 0 1 .44771525 1 1s-.4477153 1-1 1h-2c-.5522847 0-1-.44771525-1-1s.4477153-1 1-1z"/></g></g></g></svg>